<svg width="100" height="111" viewBox="0 0 100 111" fill="none" xmlns="http://www.w3.org/2000/svg">
<path d="M0 61.0058C0 67.566 1.29213 74.062 3.80263 80.1229C6.31312 86.1838 9.99281 91.6908 14.6316 96.3296C19.2704 100.968 24.7774 104.648 30.8383 107.159C36.8992 109.669 43.3952 110.961 49.9554 110.961C56.5156 110.961 63.0116 109.669 69.0725 107.159C75.1333 104.648 80.6404 100.968 85.2792 96.3296C89.918 91.6908 93.5976 86.1838 96.1081 80.1229C98.6186 74.062 99.9108 67.566 99.9108 61.0058L75.7885 61.0058C75.7885 64.3982 75.1203 67.7575 73.8221 70.8917C72.5238 74.0259 70.621 76.8737 68.2221 79.2726C65.8233 81.6714 62.9755 83.5742 59.8413 84.8725C56.7071 86.1707 53.3478 86.8389 49.9554 86.8389C46.5629 86.8389 43.2037 86.1707 40.0695 84.8725C36.9353 83.5742 34.0875 81.6714 31.6886 79.2726C29.2898 76.8737 27.3869 74.0259 26.0887 70.8917C24.7905 67.7575 24.1223 64.3982 24.1223 61.0058H0Z" fill="#00DDFF" fill-opacity="0.38"/>
<path d="M99.9108 61.0058C99.9108 67.566 98.6186 74.062 96.1081 80.1229C93.5976 86.1838 89.918 91.6908 85.2792 96.3296C80.6404 100.968 75.1333 104.648 69.0725 107.159C63.0116 109.669 56.5156 110.961 49.9554 110.961C43.3951 110.961 36.8991 109.669 30.8383 107.159C24.7774 104.648 19.2704 100.968 14.6316 96.3296C9.9928 91.6908 6.31312 86.1838 3.80263 80.1229C1.29213 74.062 -5.73514e-07 67.566 0 61.0058L24.1227 61.0058C24.1227 64.3982 24.7908 67.7574 26.0891 70.8916C27.3873 74.0257 29.2901 76.8735 31.6889 79.2723C34.0877 81.6711 36.9355 83.5739 40.0696 84.8721C43.2038 86.1703 46.563 86.8385 49.9554 86.8385C53.3478 86.8385 56.707 86.1703 59.8411 84.8721C62.9753 83.5739 65.8231 81.6711 68.2219 79.2723C70.6207 76.8735 72.5235 74.0257 73.8217 70.8916C75.1199 67.7574 75.7881 64.3982 75.7881 61.0058H99.9108Z" fill="#00DDFF" fill-opacity="0.38"/>
<path d="M49.9554 110.961C43.3951 110.961 36.8992 109.669 30.8383 107.159C24.7774 104.648 19.2704 100.968 14.6316 96.3296C9.9928 91.6908 6.31312 86.1838 3.80263 80.1229C1.29213 74.062 -9.90567e-07 67.566 0 61.0058L24.0647 61.0058C24.0647 64.4058 24.7344 67.7725 26.0355 70.9137C27.3366 74.0549 29.2437 76.9091 31.6479 79.3133C34.0521 81.7174 36.9062 83.6245 40.0474 84.9257C43.1886 86.2268 46.5554 86.8965 49.9554 86.8965L49.9554 110.961Z" fill="#00DDFF" fill-opacity="0.38"/>
<rect x="76" width="24" height="61" fill="#00DDFF" fill-opacity="0.38"/>
</svg>
